name rise31.4854peak64.571fall78.6902.mot
datacolumns 19
datarows 30
range 7.52330800000000 7.57164200000000
endheader
time	ground_force1_vx	ground_force1_vy	ground_force1_vz	ground_force1_px	ground_force1_py	ground_force1_pz	ground_force2_vx	ground_force2_vy	ground_force2_vz	ground_force2_px	ground_force2_py	ground_force2_pz	ground_torque1_x	ground_torque1_y	ground_torque1_z	ground_torque2_x	ground_torque2_y	ground_torque2_z	
7.52330800000000	67.32531200000000	784.08283100000006	53.71238500000000	0.32689500000000	0.00000000000000	0.10453100000000	0.00000000000000	0.00000000000000	0.00000000000000	0.00000000000000	0.00000000000000	0.00000000000000	0.00000000000000	19.90908800000000	0.00000000000000	0.00000000000000	0.00000000000000	0.00000000000000	
7.52497400000000	66.53291200000000	785.65896699999996	53.69226100000000	0.32593400000000	0.00000000000000	0.10451000000000	0.00000000000000	0.00000000000000	0.00000000000000	0.00000000000000	0.00000000000000	0.00000000000000	0.00000000000000	19.93588200000000	0.00000000000000	0.00000000000000	0.00000000000000	0.00000000000000	
7.52664000000000	65.74366999999999	787.09815000000003	53.67057600000000	0.32499600000000	0.00000000000000	0.10448900000000	0.00000000000000	0.00000000000000	0.00000000000000	0.00000000000000	0.00000000000000	0.00000000000000	0.00000000000000	19.96368500000000	0.00000000000000	0.00000000000000	0.00000000000000	0.00000000000000	
7.52830800000000	64.95802399999999	788.39978099999996	53.64743600000000	0.32407900000000	0.00000000000000	0.10446800000000	0.00000000000000	0.00000000000000	0.00000000000000	0.00000000000000	0.00000000000000	0.00000000000000	0.00000000000000	19.99244600000000	0.00000000000000	0.00000000000000	0.00000000000000	0.00000000000000	
7.52997500000000	64.17633700000000	789.56343600000002	53.62288100000000	0.32318200000000	0.00000000000000	0.10444800000000	0.00000000000000	0.00000000000000	0.00000000000000	0.00000000000000	0.00000000000000	0.00000000000000	0.00000000000000	20.02207500000000	0.00000000000000	0.00000000000000	0.00000000000000	0.00000000000000	
7.53164300000000	63.39890100000000	790.58888400000001	53.59689200000000	0.32230300000000	0.00000000000000	0.10442700000000	0.00000000000000	0.00000000000000	0.00000000000000	0.00000000000000	0.00000000000000	0.00000000000000	0.00000000000000	20.05244900000000	0.00000000000000	0.00000000000000	0.00000000000000	0.00000000000000	
7.53330800000000	62.62594100000000	791.47608600000001	53.56939400000000	0.32144200000000	0.00000000000000	0.10440600000000	0.00000000000000	0.00000000000000	0.00000000000000	0.00000000000000	0.00000000000000	0.00000000000000	0.00000000000000	20.08340800000000	0.00000000000000	0.00000000000000	0.00000000000000	0.00000000000000	
7.53497300000000	61.85762100000000	792.22521200000006	53.54026100000000	0.32059600000000	0.00000000000000	0.10438600000000	0.00000000000000	0.00000000000000	0.00000000000000	0.00000000000000	0.00000000000000	0.00000000000000	0.00000000000000	20.11476600000000	0.00000000000000	0.00000000000000	0.00000000000000	0.00000000000000	
7.53663800000000	61.09404500000000	792.83664299999998	53.50931800000000	0.31976300000000	0.00000000000000	0.10436600000000	0.00000000000000	0.00000000000000	0.00000000000000	0.00000000000000	0.00000000000000	0.00000000000000	0.00000000000000	20.14630800000000	0.00000000000000	0.00000000000000	0.00000000000000	0.00000000000000	
7.53830700000000	60.33526500000000	793.31098099999997	53.47635000000000	0.31894300000000	0.00000000000000	0.10434700000000	0.00000000000000	0.00000000000000	0.00000000000000	0.00000000000000	0.00000000000000	0.00000000000000	0.00000000000000	20.17779600000000	0.00000000000000	0.00000000000000	0.00000000000000	0.00000000000000	
7.53997400000000	59.58128400000000	793.64905199999998	53.44110300000000	0.31813400000000	0.00000000000000	0.10432800000000	0.00000000000000	0.00000000000000	0.00000000000000	0.00000000000000	0.00000000000000	0.00000000000000	0.00000000000000	20.20897100000000	0.00000000000000	0.00000000000000	0.00000000000000	0.00000000000000	
7.54163700000000	58.83206300000000	793.85191099999997	53.40329000000000	0.31733200000000	0.00000000000000	0.10431000000000	0.00000000000000	0.00000000000000	0.00000000000000	0.00000000000000	0.00000000000000	0.00000000000000	0.00000000000000	20.23955800000000	0.00000000000000	0.00000000000000	0.00000000000000	0.00000000000000	
7.54331100000000	58.08752200000000	793.92084399999999	53.36260000000000	0.31653800000000	0.00000000000000	0.10429300000000	0.00000000000000	0.00000000000000	0.00000000000000	0.00000000000000	0.00000000000000	0.00000000000000	0.00000000000000	20.26926500000000	0.00000000000000	0.00000000000000	0.00000000000000	0.00000000000000	
7.54497400000000	57.34754900000000	793.85737099999994	53.31869600000000	0.31574800000000	0.00000000000000	0.10427600000000	0.00000000000000	0.00000000000000	0.00000000000000	0.00000000000000	0.00000000000000	0.00000000000000	0.00000000000000	20.29779000000000	0.00000000000000	0.00000000000000	0.00000000000000	0.00000000000000	
7.54664000000000	56.61200200000000	793.66324799999995	53.27122700000000	0.31496200000000	0.00000000000000	0.10426000000000	0.00000000000000	0.00000000000000	0.00000000000000	0.00000000000000	0.00000000000000	0.00000000000000	0.00000000000000	20.32482500000000	0.00000000000000	0.00000000000000	0.00000000000000	0.00000000000000	
7.54831000000000	55.88071500000000	793.34046400000000	53.21982900000000	0.31417700000000	0.00000000000000	0.10424500000000	0.00000000000000	0.00000000000000	0.00000000000000	0.00000000000000	0.00000000000000	0.00000000000000	0.00000000000000	20.35005300000000	0.00000000000000	0.00000000000000	0.00000000000000	0.00000000000000	
7.54997000000000	55.15350400000000	792.89124000000004	53.16413000000000	0.31339000000000	0.00000000000000	0.10423000000000	0.00000000000000	0.00000000000000	0.00000000000000	0.00000000000000	0.00000000000000	0.00000000000000	0.00000000000000	20.37315900000000	0.00000000000000	0.00000000000000	0.00000000000000	0.00000000000000	
7.55164200000000	54.43016800000000	792.31802700000003	53.10375900000000	0.31260200000000	0.00000000000000	0.10421700000000	0.00000000000000	0.00000000000000	0.00000000000000	0.00000000000000	0.00000000000000	0.00000000000000	0.00000000000000	20.39382700000000	0.00000000000000	0.00000000000000	0.00000000000000	0.00000000000000	
7.55330300000000	53.71049800000000	791.62350200000003	53.03834500000000	0.31180900000000	0.00000000000000	0.10420500000000	0.00000000000000	0.00000000000000	0.00000000000000	0.00000000000000	0.00000000000000	0.00000000000000	0.00000000000000	20.41174900000000	0.00000000000000	0.00000000000000	0.00000000000000	0.00000000000000	
7.55496900000000	52.99427800000000	790.81056300000000	52.96752800000000	0.31100900000000	0.00000000000000	0.10419400000000	0.00000000000000	0.00000000000000	0.00000000000000	0.00000000000000	0.00000000000000	0.00000000000000	0.00000000000000	20.42661900000000	0.00000000000000	0.00000000000000	0.00000000000000	0.00000000000000	
7.55663500000000	52.28129100000000	789.88232400000004	52.89095600000000	0.31020200000000	0.00000000000000	0.10418400000000	0.00000000000000	0.00000000000000	0.00000000000000	0.00000000000000	0.00000000000000	0.00000000000000	0.00000000000000	20.43814600000000	0.00000000000000	0.00000000000000	0.00000000000000	0.00000000000000	
7.55830900000000	51.57132300000000	788.84210700000006	52.80829600000000	0.30938500000000	0.00000000000000	0.10417500000000	0.00000000000000	0.00000000000000	0.00000000000000	0.00000000000000	0.00000000000000	0.00000000000000	0.00000000000000	20.44604900000000	0.00000000000000	0.00000000000000	0.00000000000000	0.00000000000000	
7.55997100000000	50.86416400000000	787.69343300000003	52.71923400000000	0.30855700000000	0.00000000000000	0.10416700000000	0.00000000000000	0.00000000000000	0.00000000000000	0.00000000000000	0.00000000000000	0.00000000000000	0.00000000000000	20.45006300000000	0.00000000000000	0.00000000000000	0.00000000000000	0.00000000000000	
7.56163600000000	50.15961400000000	786.44001500000002	52.62348000000000	0.30771600000000	0.00000000000000	0.10416100000000	0.00000000000000	0.00000000000000	0.00000000000000	0.00000000000000	0.00000000000000	0.00000000000000	0.00000000000000	20.44994000000000	0.00000000000000	0.00000000000000	0.00000000000000	0.00000000000000	
7.56330200000000	49.45748700000000	785.08574999999996	52.52076900000000	0.30686100000000	0.00000000000000	0.10415500000000	0.00000000000000	0.00000000000000	0.00000000000000	0.00000000000000	0.00000000000000	0.00000000000000	0.00000000000000	20.44545300000000	0.00000000000000	0.00000000000000	0.00000000000000	0.00000000000000	
7.56497100000000	48.75761100000000	783.63470500000005	52.41086900000000	0.30599100000000	0.00000000000000	0.10415200000000	0.00000000000000	0.00000000000000	0.00000000000000	0.00000000000000	0.00000000000000	0.00000000000000	0.00000000000000	20.43639600000000	0.00000000000000	0.00000000000000	0.00000000000000	0.00000000000000	
7.56664000000000	48.05983300000000	782.09110899999996	52.29357800000000	0.30510300000000	0.00000000000000	0.10414900000000	0.00000000000000	0.00000000000000	0.00000000000000	0.00000000000000	0.00000000000000	0.00000000000000	0.00000000000000	20.42258600000000	0.00000000000000	0.00000000000000	0.00000000000000	0.00000000000000	
7.56830900000000	47.36402000000000	780.45933700000000	52.16872900000000	0.30419700000000	0.00000000000000	0.10414800000000	0.00000000000000	0.00000000000000	0.00000000000000	0.00000000000000	0.00000000000000	0.00000000000000	0.00000000000000	20.40386500000000	0.00000000000000	0.00000000000000	0.00000000000000	0.00000000000000	
7.56997700000000	46.67006100000000	778.74390400000004	52.03619100000000	0.30327300000000	0.00000000000000	0.10414800000000	0.00000000000000	0.00000000000000	0.00000000000000	0.00000000000000	0.00000000000000	0.00000000000000	0.00000000000000	20.38010200000000	0.00000000000000	0.00000000000000	0.00000000000000	0.00000000000000	
7.57164200000000	45.97787200000000	776.94944699999996	51.89587400000000	0.30232800000000	0.00000000000000	0.10415000000000	0.00000000000000	0.00000000000000	0.00000000000000	0.00000000000000	0.00000000000000	0.00000000000000	0.00000000000000	20.35119100000000	0.00000000000000	0.00000000000000	0.00000000000000	0.00000000000000	
